<svg xmlns="http://www.w3.org/2000/svg" viewBox="0 0 438 438"><defs><style>.cls-1{fill:#f26921;}</style></defs><title>Airports</title><g id="Layer_2" data-name="Layer 2"><g id="Layer_1-2" data-name="Layer 1"><path class="cls-1" d="M171.95,322.52v51.33a12.83,12.83,0,0,0,12.83,12.83h51.33a12.83,12.83,0,0,0,12.83-12.83V322.52a12.83,12.83,0,0,0-12.83-12.83H184.78A12.82,12.82,0,0,0,171.95,322.52Zm25.66,12.83h25.66V361H197.61Z"/><path class="cls-1" d="M69.29,322.52v51.33a12.83,12.83,0,0,0,12.83,12.83h51.33a12.83,12.83,0,0,0,12.83-12.83V322.52a12.83,12.83,0,0,0-12.83-12.83H82.12A12.82,12.82,0,0,0,69.29,322.52ZM95,335.35h25.66V361H95Z"/><path class="cls-1" d="M0,425.17A12.83,12.83,0,0,0,12.83,438H425.17a12.83,12.83,0,1,0,0-25.66H368.71V199.51l47.57-47.57a12.8,12.8,0,0,0,3.76-9.08v-38.5h4.28a12.83,12.83,0,1,0,0-25.66H377.27V40.2a12.83,12.83,0,0,0-12.83-12.83H334.5V12.83a12.83,12.83,0,0,0-25.66,0V27.37H278.9A12.83,12.83,0,0,0,266.07,40.2V78.7H219a12.83,12.83,0,1,0,0,25.66h4.28v38.5a12.84,12.84,0,0,0,3.76,9.08l47.57,47.57v58.85H13.71a12.83,12.83,0,1,0,0,25.66H18V412.34H12.86A12.84,12.84,0,0,0,0,425.17ZM351.6,78.71H291.72V53H351.6Zm42.77,25.66V130H248.94V104.37ZM376.22,155.7l-25.66,25.66H292.75L267.09,155.7ZM343,412.34H300.27V207H343Zm-299.41,0V284h231V412.34Z"/><path class="cls-1" d="M118,122.12l-1.57-1.42a8.18,8.18,0,0,0-4.58-2.08l-16.38-1.94c-8.63-8.13-15-14.12-19-17.81l-1.11-1,32.7-24.21,2.65-2a8.27,8.27,0,0,0,.59-12.75l-3.35-3a8.27,8.27,0,0,0-9-1.37L51.62,76.39C39,65.17,31.08,59.07,25.4,56.11c-2.42-1.26-9.77-5.1-15.3,1s-1,13,.53,15.32C14.15,77.8,21,85,33.46,96.48L16.28,146a8.25,8.25,0,0,0,2.27,8.84l3.34,3A8.26,8.26,0,0,0,34.54,156c.15-.25,16.62-27.93,22.66-38.06L58.46,119c4.12,3.65,10.68,9.38,19.52,17l3.58,16.1a8.22,8.22,0,0,0,2.53,4.34l1.57,1.42a8.22,8.22,0,0,0,5.53,2.14,8.54,8.54,0,0,0,1.43-.12,8.15,8.15,0,0,0,5.86-4.25l6.73-12.63,11.89-8a8.27,8.27,0,0,0,.94-13Z"/></g></g></svg>