<?xml version="1.0" encoding="UTF-8"?>
<svg width="8px" height="13px" viewBox="0 0 8 13" version="1.1" xmlns="http://www.w3.org/2000/svg" xmlns:xlink="http://www.w3.org/1999/xlink">
    <!-- Generator: sketchtool 53 (72520) - https://sketchapp.com -->
    <title>A9C50692-A2CC-4236-BD18-7DD481007685</title>
    <desc>Created with sketchtool.</desc>
    <g id="Page-1" stroke="none" stroke-width="1" fill="none" fill-rule="evenodd">
        <g id="00-Sita-Opt1-Mobile-01" transform="translate(-327.000000, -128.000000)" fill="#0095DA" fill-rule="nonzero">
            <path d="M334.782789,133.99274 L328.722952,128.207681 C328.582796,128.073772 328.395699,128 328.196202,128 C327.996706,128 327.809609,128.073772 327.669453,128.207681 L327.223188,128.633613 C326.9328,128.911155 326.9328,129.362241 327.223188,129.639361 L332.311781,134.497305 L327.217542,139.360639 C327.077385,139.494549 327,139.67306 327,139.863408 C327,140.053967 327.077385,140.232478 327.217542,140.366493 L327.663807,140.792319 C327.804074,140.926228 327.99106,141 328.190556,141 C328.390053,141 328.577149,140.926228 328.717306,140.792319 L334.782789,135.001976 C334.923277,134.867643 335.000441,134.688287 334.999998,134.497622 C335.000441,134.306217 334.923277,134.126966 334.782789,133.99274 Z" id="Path"></path>
        </g>
    </g>
</svg>