<?xml version="1.0" encoding="UTF-8"?>
<svg width="1147px" height="1140px" viewBox="0 0 1147 1140" version="1.1" xmlns="http://www.w3.org/2000/svg" xmlns:xlink="http://www.w3.org/1999/xlink">
    <!-- Generator: sketchtool 53 (72520) - https://sketchapp.com -->
    <title>EDCD0A32-328F-4FA7-A7F7-A7DAFB18D76C</title>
    <desc>Created with sketchtool.</desc>
    <g id="Page-1" stroke="none" stroke-width="1" fill="none" fill-rule="evenodd">
        <g id="Assets-01" transform="translate(-267.000000, -5869.000000)" fill="#FFFFFF">
            <path d="M322.724259,6570.57109 C336.454266,6611.82642 356.664199,6651.536 383.593072,6688.1541 C466.796384,6801.49965 641.117016,6944.74731 793.767076,6991.62594 C929.04881,7033.14777 1047.30746,6998.84828 1069.66852,6800.35367 C1070.11999,6797.87515 1070.51834,6795.13012 1070.65113,6792.545 C1085.3903,6674.32238 1128.09408,6594.21029 1178.15416,6531.26127 C1248.15861,6443.55373 1332.58355,6389.15959 1375.92469,6311.63263 C1414.85736,6242.18083 1420.99204,6154.34003 1354.59936,6007.41457 C1330.14029,5953.02044 1288.4988,5912.80449 1235.78301,5885.14103 C1181.58002,5856.89126 1116.01061,5841.70035 1045.36879,5838.07585 C941.92899,5832.71905 827.892916,5852.09413 723.736072,5890.33793 C651.102476,5917.28181 581.496385,5953.95321 520.786915,6002.21768 C408.955077,6091.36436 337.091635,6210.12 311.490616,6331.99378 C294.626875,6412.61223 297.787166,6494.61652 322.724259,6570.57109 Z" id="Bubble-Back-02" transform="translate(852.966330, 6422.198064) rotate(100.000000) translate(-852.966330, -6422.198064) "></path>
        </g>
    </g>
</svg>