<?xml version="1.0" encoding="UTF-8"?>
<svg width="601px" height="1014px" viewBox="0 0 601 1014" version="1.1" xmlns="http://www.w3.org/2000/svg" xmlns:xlink="http://www.w3.org/1999/xlink">
    <!-- Generator: sketchtool 53 (72520) - https://sketchapp.com -->
    <title>09DFBBE5-9A3F-4A92-BFFA-ECC57D3CC3AA</title>
    <desc>Created with sketchtool.</desc>
    <g id="Page-1" stroke="none" stroke-width="1" fill="none" fill-rule="evenodd" opacity="0.8">
        <g id="20-SitaAero-PrivacyAtSITA-01" transform="translate(-839.000000, -757.000000)" fill="#FFFFFF">
            <path d="M850.797626,1423.07953 C862.71189,1458.90467 880.249132,1493.38752 903.616759,1525.1858 C975.816735,1623.61236 1127.08409,1748.0052 1259.54674,1788.71348 C1376.93795,1824.77005 1479.55732,1794.98519 1498.96121,1622.61722 C1499.35298,1620.46493 1499.69865,1618.08122 1499.81388,1615.83636 C1512.60385,1513.17466 1549.6602,1443.60724 1593.10002,1388.94382 C1653.84664,1312.78069 1727.10668,1265.54612 1764.71612,1198.22356 C1798.50008,1137.91328 1803.82348,1061.63444 1746.21098,934.047884 C1724.98654,886.813319 1688.85199,851.890753 1643.10767,827.86847 C1596.07283,803.337045 1539.17473,790.145618 1477.87504,786.99819 C1388.11478,782.346477 1289.15956,799.171331 1198.77708,832.381327 C1135.74901,855.778752 1075.34808,887.623319 1022.66721,929.535028 C925.624731,1006.94787 863.26497,1110.07243 841.049592,1215.9047 C826.416019,1285.91184 829.158374,1357.1224 850.797626,1423.07953 Z" id="Bubble-Back-01" transform="translate(1310.917104, 1294.235943) rotate(-69.000000) translate(-1310.917104, -1294.235943) "></path>
        </g>
    </g>
</svg>