<svg id="Layer_1" data-name="Layer 1" xmlns="http://www.w3.org/2000/svg" viewBox="0 0 221.86 241.49"><defs><style>.cls-1{fill:#fff;}</style></defs><title>logo-white</title><path class="cls-1" d="M205.37,103.45a5,5,0,1,1-5,5A5,5,0,0,1,205.37,103.45Zm0,8.9a3.91,3.91,0,1,0-3.79-3.91A3.88,3.88,0,0,0,205.37,112.35Zm-2-6.69h2.1c1.41,0,2.21.42,2.21,1.65a1.37,1.37,0,0,1-1.46,1.48l1.46,2.39h-1.33L205,108.86h-.46v2.34h-1.2Zm2.16,2.28c.57,0,1-.09,1-.73s-.62-.64-1.08-.64h-.85v1.36Z" transform="translate(-1.04 -3.06)"/><path class="cls-1" d="M136,93.3a17.69,17.69,0,0,1-1.22-6.45c0-7.61,4.74-15.28,15.3-15.28s15.21,7.51,15.21,15a18.41,18.41,0,0,1-.52,4.31l-11,.92a8.6,8.6,0,0,0,1.4-5c0-2.66-1-6.45-4.88-6.66h-.36c-3.94.13-5,4-5,6.67,0,1.88.44,4.2,1.9,5.61Zm41.54-3.55V86l2.12,3.59,15.84-1.35V72.55H186.2V85.07l-7.28-12.52H167.83v18ZM41.4,97.27a14.8,14.8,0,0,0,3.35-7.73h-9.6l-.05.12c-.64,1.45-1.67,3.88-4.71,3.88a4.22,4.22,0,0,1-3-1.19C25.67,90.68,25.67,88,25.67,87l0-.66c0-.9,0-3.57,1.71-5.23a4.2,4.2,0,0,1,3-1.19c3,0,4.07,2.44,4.71,3.9l0,.1h9.61a14.85,14.85,0,0,0-3.35-7.74A15.08,15.08,0,0,0,30,71.57c-9.71,0-14.45,7.63-14.72,14.71,0,0,0,.08,0,.08V87c.23,7.17,4.94,14.89,14.75,14.89A15.08,15.08,0,0,0,41.4,97.27m5.6,3.59v-15c0-3.15,0-7.47,3.41-10.72a14.13,14.13,0,0,1,9.78-3.41c4,0,7.74,1.27,10,3.41,2.84,2.77,2.93,6,3,8.86V98.64l-9.88.85v-5.8H56.91V100Zm9.91-14H63.3V84a3.62,3.62,0,0,0-.85-2.89,3.24,3.24,0,0,0-2.32-.82,3.37,3.37,0,0,0-2.34.8A3.59,3.59,0,0,0,56.91,84ZM76.79,98.33V72.52H91a19.73,19.73,0,0,1,6.94.91c3.75,1.6,5.12,5.37,5.16,8.43v.76a8.2,8.2,0,0,1-2.29,6A7.92,7.92,0,0,1,98,90.45c.19.28,2,3.11,3.67,5.76L91,97.12c-1.35-2.26-2.77-4.67-2.85-4.84H87.06v5.19ZM87.06,84.88H89.7c2.37,0,3.2-.59,3.2-2.21V82c0-1.59-.86-2.14-3.24-2.14h-2.6ZM106.3,95.82V72.56h16.84c1.78.08,5.09.23,7.28,2.4a7.27,7.27,0,0,1,2.1,5.27,7.61,7.61,0,0,1-2.13,5.33,6.67,6.67,0,0,1-.81.65,6.33,6.33,0,0,1,1.65,1.14,6.93,6.93,0,0,1,2,5.19c0,.35,0,.67-.06,1ZM116.51,83.3h3.68a2,2,0,0,0,1.59-.53v0a1.54,1.54,0,0,0,.41-1v-.46c0-1.37-.86-1.71-2.18-1.76h-3.51Zm0,9.69h4.36a2,2,0,0,0,1.59-.52h0a1.77,1.77,0,0,0,.39-1.07v-.48c0-1.36-.86-1.68-2.16-1.74h-4.22ZM47.17,103.31v13.32l-7.62-13.32H30.11v26.5h8.56l0-13.13,7.59,13.13h9.52v-26.5Zm111.12,26.5H147.63l-4.81-8.16h-1v8.16H132.3v-26.5h13.2a18.48,18.48,0,0,1,6.44.83c3.47,1.48,4.75,5,4.78,7.82v.7a7.72,7.72,0,0,1-2.12,5.56,7.13,7.13,0,0,1-2.59,1.72c.32.53,6.27,9.87,6.27,9.87m-11.05-17.09v-.57c0-1.5-.79-2-3-2h-2.42v4.6h2.46c2.17,0,3-.53,3-2M84.82,127.34c2.09,2,5.54,3.19,9.25,3.19a13.11,13.11,0,0,0,9.08-3.17c3.16-3,3.16-7,3.16-9.95V103.31H97.12v16.44a3.35,3.35,0,0,1-.82,2.69,3.12,3.12,0,0,1-2.17.75,3.06,3.06,0,0,1-2.16-.77,3.41,3.41,0,0,1-.77-2.67V103.31H82V119s0,.14,0,.14c.06,2.64.14,5.65,2.78,8.21m30,2.5h9.12V110.68h6.45v-7.4h-22v7.4h6.44Zm80.62-7.5V103.28H186.3v26.56h19v-7.5Zm-115.07.91H68v-3.69H79.13v-6.61H68V110H80.06v-6.68H58.82v26.52H80.36Zm103.34-9.07v15.67h-9.17V123H168.6v6.85h-9.2V115.76c0-2.95,0-6.94,3.17-10a13.14,13.14,0,0,1,9.09-3.16c3.72,0,7.17,1.18,9.23,3.17,2.65,2.58,2.73,5.56,2.8,8.21,0,0,0,.13,0,.14m-9.17-.13a3.32,3.32,0,0,0-.81-2.69,3,3,0,0,0-2.14-.76,3.19,3.19,0,0,0-2.19.75,3.44,3.44,0,0,0-.79,2.7v2.62h5.94Z" transform="translate(-1.04 -3.06)"/><path class="cls-1" d="M27.2,241.63v-4.18c0-3.43-2.48-4.65-5.33-4.65l-.76,0a9.74,9.74,0,0,0-3.72,1l.05,2.38a7.32,7.32,0,0,1,3.58-.84c1.41,0,2.55.41,2.56,1.95a9.32,9.32,0,0,0-1.81-.16c-2.08,0-5.8.4-5.8,3.83,0,2.43,2,3.55,4.21,3.55a3.83,3.83,0,0,0,3.55-2h0c0,.12,0,.21,0,.32v0a1.45,1.45,0,0,0,1.42,1.43h2.22a13.25,13.25,0,0,1-.22-2.66m-6,.34c-.91,0-1.59-.47-1.59-1.24,0-1.07,1-1.49,2.34-1.49.58,0,1.16.05,1.64.07A2.54,2.54,0,0,1,21.19,242Z" transform="translate(-1.04 -3.06)"/><path class="cls-1" d="M159.93,241.63v-4.18c0-3.43-2.47-4.65-5.35-4.65l-.75,0a9.59,9.59,0,0,0-3.7,1l0,2.38a7.42,7.42,0,0,1,3.59-.84c1.4,0,2.52.41,2.57,1.95a9.48,9.48,0,0,0-1.81-.16c-2.07,0-5.8.4-5.8,3.83,0,2.43,2,3.55,4.19,3.55a3.86,3.86,0,0,0,3.57-2h0a1.56,1.56,0,0,0,0,.32v0a1.44,1.44,0,0,0,1.41,1.43h2.23a13.25,13.25,0,0,1-.22-2.66m-6,.34c-.92,0-1.59-.47-1.59-1.24,0-1.07,1-1.49,2.34-1.49.58,0,1.16.05,1.64.07A2.54,2.54,0,0,1,153.92,242Z" transform="translate(-1.04 -3.06)"/><path class="cls-1" d="M37,232.8a3.44,3.44,0,0,0-3.31,2.32h0V233H30.11v11.25H32.6A1.43,1.43,0,0,0,34,243v-3.43c0-2.2,1-3.52,2.83-3.52a4.88,4.88,0,0,1,1.31.12l.18-3.23a11.67,11.67,0,0,0-1.3-.12" transform="translate(-1.04 -3.06)"/><path class="cls-1" d="M146.92,232.8a3.45,3.45,0,0,0-3.32,2.32h-.05V233H140v11.25h2.48a1.43,1.43,0,0,0,1.38-1.3v-3.43c0-2.2,1-3.52,2.82-3.52a4.87,4.87,0,0,1,1.31.12l.21-3.23a10,10,0,0,0-1.33-.12" transform="translate(-1.04 -3.06)"/><path class="cls-1" d="M165.35,228.11h-2.47v16.16h3.88v-14.8a1.45,1.45,0,0,0-1.41-1.37" transform="translate(-1.04 -3.06)"/><path class="cls-1" d="M128.57,233h2.29v-2.5l3.82-1.21V233h2.71v2.73h-2.71v4.12c0,1.38.33,2.07,1.55,2.07a7.81,7.81,0,0,0,1.19-.16l.12,2.52a20.54,20.54,0,0,1-2.44.22c-3.45,0-4.29-1.54-4.29-4.21v-4.57h-2.23V233" transform="translate(-1.04 -3.06)"/><path class="cls-1" d="M123,233v4.76c0,2.41-.84,3.51-2.44,3.51-1.06,0-1.8-.7-1.8-2.83v-4a1.44,1.44,0,0,0-1.3-1.4h-2.55v7c0,2.34,1.22,4.49,4.29,4.49a4.21,4.21,0,0,0,4.07-2.34h.05v2.08h3.54V233H123" transform="translate(-1.04 -3.06)"/><path class="cls-1" d="M105.14,239.8c.22,1.55,1.4,2.16,3.31,2.16a7.42,7.42,0,0,0,3.42-.87v2.74a11.26,11.26,0,0,1-4.13.72c-3.68,0-6.51-2.18-6.51-5.9s2.51-5.85,6-5.85c4.17,0,5.67,2.95,5.67,6.31v.7h-7.77m4.27-2.21a2.06,2.06,0,0,0-2.14-2.35c-1.41,0-2.08,1.06-2.16,2.35Z" transform="translate(-1.04 -3.06)"/><path class="cls-1" d="M179.55,238.31a4.89,4.89,0,0,0,.39,1.9c.55.86,1.06,1.42,2.95,1.42a7.47,7.47,0,0,0,3.42-.86v2.76a11.6,11.6,0,0,1-4.11.71c-3.7,0-6.53-2.18-6.53-5.88v-.11c0-3.72,2.83-5.88,6.53-5.88a11.34,11.34,0,0,1,4.11.71v2.73a7.22,7.22,0,0,0-3.42-.86c-1.89,0-2.39.55-2.95,1.42a4.75,4.75,0,0,0-.39,1.9Z" transform="translate(-1.04 -3.06)"/><path class="cls-1" d="M95.42,229.24l.06,10.23h-.05l-5.08-10.23H85.25v15.05h2.26a1.43,1.43,0,0,0,1.4-1.42v-.11L88.8,234h.05l5.25,10.27h5V229.24H95.42" transform="translate(-1.04 -3.06)"/><path class="cls-1" d="M77.79,232.8a4.28,4.28,0,0,0-4.09,2.32h0V233H70.13v11.25h2.51A1.44,1.44,0,0,0,74,242.93v-3.38c0-2.43.82-3.52,2.39-3.52,1.07,0,1.81.7,1.81,2.82v5.44h3.87v-7c0-2.32-1.22-4.48-4.29-4.48" transform="translate(-1.04 -3.06)"/><path class="cls-1" d="M55,238.66c0-3.7,2.8-5.86,6.51-5.86S68,235,68,238.66s-2.83,5.89-6.53,5.89S55,242.4,55,238.66m9,0c0-1.66-.74-3.13-2.52-3.13s-2.53,1.46-2.53,3.13.74,3.17,2.53,3.17S64,240.34,64,238.66Z" transform="translate(-1.04 -3.06)"/><path class="cls-1" d="M48.15,232.8a4.63,4.63,0,0,0-3.86,1.7h0v-5a1.45,1.45,0,0,0-1.38-1.37H40.35v16.16h3.57v-2h0a4.19,4.19,0,0,0,3.87,2.27c3.34,0,5.13-2.78,5.13-6.09,0-2.71-1.72-5.66-4.81-5.66m-1.55,8.78a2.63,2.63,0,0,1-2.37-2.87c0-1.67,1-2.93,2.37-2.93A2.5,2.5,0,0,1,49,238.55C49,240.34,48.07,241.57,46.61,241.57Z" transform="translate(-1.04 -3.06)"/><path class="cls-1" d="M14,240.79a10.79,10.79,0,0,1-3.75.78c-2.94,0-5-1.8-5-4.74a4.58,4.58,0,0,1,4.71-4.89A8,8,0,0,1,13.81,233l.27-2.84a7.7,7.7,0,0,0-3.3-1.14,3.06,3.06,0,0,0-.44,0,5,5,0,0,0-.68,0c-5,0-8.62,2.61-8.62,7.85,0,5.65,4.58,7.69,8.59,7.72h.32l.72,0a7.89,7.89,0,0,0,3.42-1.18L14,240.79" transform="translate(-1.04 -3.06)"/><path class="cls-1" d="M174,242.6a1.65,1.65,0,1,1-1.64-1.66A1.66,1.66,0,0,1,174,242.6" transform="translate(-1.04 -3.06)"/><path class="cls-1" d="M218.94,232.8a4.43,4.43,0,0,0-4,2.15,3.5,3.5,0,0,0-3.5-2.15,4.24,4.24,0,0,0-4.09,2.32h-.05V233h-3.53v11.25h2.44a1.45,1.45,0,0,0,1.44-1.43v-3.31c0-2.44.83-3.53,2.2-3.53,1.09,0,1.55.94,1.55,2.23v6h3.86v-4.74c0-2.44.83-3.53,2.2-3.53,1.1,0,1.56.94,1.56,2.23v6h2.49a1.46,1.46,0,0,0,1.39-1.43v-5.19c0-3-.74-4.86-4-4.86" transform="translate(-1.04 -3.06)"/><path class="cls-1" d="M188.52,238.66c0-3.7,2.81-5.86,6.52-5.86s6.54,2.16,6.54,5.86-2.84,5.89-6.54,5.89-6.52-2.15-6.52-5.89m9,0c0-1.65-.72-3.13-2.52-3.13s-2.52,1.47-2.52,3.13.73,3.17,2.52,3.17S197.56,240.34,197.56,238.66Z" transform="translate(-1.04 -3.06)"/><path class="cls-1" d="M70.75,177.3a7.18,7.18,0,0,0-2-1.92c-2.35-1.47-5-.19-6.34,2s-1.58,5,1.13,6.65a5.16,5.16,0,0,0,2.67.76l-1,2a7.55,7.55,0,0,1-2.94-1.19A6.8,6.8,0,0,1,60.2,176c2.17-3.47,6.07-4.52,9.56-2.34a9.39,9.39,0,0,1,2.27,2Z" transform="translate(-1.04 -3.06)"/><path class="cls-1" d="M79.71,178.63c3.76,1.6,5.13,5.4,3.53,9.16a6.85,6.85,0,1,1-12.61-5.36C72.24,178.67,75.92,177,79.71,178.63ZM75,189.76c2.67,1.13,4.89-.79,5.83-3,1-2.36.54-5.25-1.89-6.29s-4.86.64-5.86,3S72.28,188.61,75,189.76Z" transform="translate(-1.04 -3.06)"/><path class="cls-1" d="M87.4,182.37l2.28.43-.36,1.92h0A4.55,4.55,0,0,1,94,183.3a4,4,0,0,1,3.27,3.28,4.79,4.79,0,0,1,4.58-1.79c3.37.64,4.17,3,3.63,5.92l-1.61,8.48-2.43-.46,1.49-7.89c.31-1.63.31-3.76-1.66-4.13-2.49-.47-3.94,1.78-4.4,4.25l-1.27,6.66-2.43-.46,1.49-7.88c.31-1.63.31-3.76-1.66-4.13-2.49-.48-3.93,1.78-4.4,4.23l-1.26,6.67-2.44-.47Z" transform="translate(-1.04 -3.06)"/><path class="cls-1" d="M109.13,185.78l2.38-.06,0,1.9h.05a5.41,5.41,0,0,1,4.51-2.35c3.9-.1,5.89,3,6,6.65s-1.52,7.33-5.57,7.44c-2.38.06-3.75-.82-4.55-2h-.05l.2,7.39-2.48.06Zm6.51,1.52c-2.69.07-3.91,2.67-3.84,5.17.06,2.24,1.3,5,4.1,4.91s3.69-3.08,3.58-5.19C119.46,189.75,118.33,187.22,115.64,187.3Z" transform="translate(-1.04 -3.06)"/><path class="cls-1" d="M125,185.85a8.57,8.57,0,0,1,4.1-2.11c3.77-.75,5.68.81,6.39,4.4l1.09,5.46a21.49,21.49,0,0,0,.62,2.56l-2.28.46-.34-1.71-.05,0a5,5,0,0,1-3.69,2.83c-2.84.56-5.09-.28-5.66-3.16-.66-3.31,2.76-5.07,5.27-5.57,1-.19,1.63-.32,2.61-.46-.45-2.27-1.52-3.28-4-2.79a6.29,6.29,0,0,0-3.56,2.11Zm8.42,4.54c-.52.1-1.05.15-1.57.26-1.33.26-4.54,1.12-4.08,3.44a2.38,2.38,0,0,0,2.89,1.66,3.4,3.4,0,0,0,3-4.2Z" transform="translate(-1.04 -3.06)"/><path class="cls-1" d="M137.7,182.12l2.24-.86.77,2,.05,0a4.8,4.8,0,0,1,3.22-3.88c3.25-1.26,5.48.2,6.78,3.57l2.88,7.47-2.31.89-2.51-6.49c-1.13-2.94-2.32-4.11-4.39-3.46-2.64,1-3,3.59-1.82,6.65l2.25,5.81-2.31.89Z" transform="translate(-1.04 -3.06)"/><path class="cls-1" d="M159.48,191.58a3.74,3.74,0,0,0,1.1-.41c1.92-1.12,1-4.14.87-4.37a7.84,7.84,0,0,0-1.13-1L150,177.3l2.34-1.38,8.77,7.78,0,0-2.46-11.47,2.16-1.27,2.69,14.37c.51,2.7,1.19,5.76-1.64,7.41a8.21,8.21,0,0,1-1.55.7Z" transform="translate(-1.04 -3.06)"/><path class="cls-1" d="M58.44,45.09A22,22,0,0,1,55.52,50c-4.27,5.27-10.46,7.15-16.1,2.34-5.29-4.51-4.36-11.17-.23-16.27a27.15,27.15,0,0,1,4-3.9l4.17,3.55a12.66,12.66,0,0,0-3.06,2.55c-2.1,2.58-2.31,5.72.27,7.92s5.57,1.67,7.62-.85a12.93,12.93,0,0,0,2.07-3.82Z" transform="translate(-1.04 -3.06)"/><path class="cls-1" d="M48.73,27.86l13.6-10,2.8,3.91-7.71,5.7,1.64,2.29,7.38-5.44,2.8,3.91-7.38,5.44,1.59,2.21L71.33,30l2.8,3.9L60.38,44.1Z" transform="translate(-1.04 -3.06)"/><path class="cls-1" d="M68.4,14.19,79.25,9.61c4.06-1.79,7.31-1.13,8.65,2.54,1.08,2.93.08,4.39-2.11,6.12v.05a4.13,4.13,0,0,1,3.64.79c1.74,1.58,2.79,4.9,4.65,6.52l-7.55,3a33.44,33.44,0,0,0-3.31-4.75c-.71-.7-1.31-1-2.12-.68l-1,.43,2.38,6.49L76,33Zm9.91,5.28,1.7-.75c1.35-.59,2.61-1.34,1.89-3.28-.63-1.72-2-1.42-3.28-.84l-1.79.79Z" transform="translate(-1.04 -3.06)"/><path class="cls-1" d="M110.34,9.06l-6.44.85,1.73,14.32-7.32,1L96.57,10.86l-6.44.84-.74-6,20.22-2.64Z" transform="translate(-1.04 -3.06)"/><path class="cls-1" d="M121,3.78l-.89,20.46-7.7-.34.89-20.46Z" transform="translate(-1.04 -3.06)"/><path class="cls-1" d="M126.64,4.12l16.62,4-1.14,4.8-9.17-2.19-.75,3.22,8.88,2.13-1.13,4.8-8.88-2.12-1.67,7.1L122,24Z" transform="translate(-1.04 -3.06)"/><path class="cls-1" d="M154.21,12.9l-8,18.87-7.1-3,8-18.86Z" transform="translate(-1.04 -3.06)"/><path class="cls-1" d="M159.6,15.48,173.71,25,171,29l-8-5.42-1.6,2.33L169,31.1l-2.75,4-7.64-5.19-1.55,2.24,8.16,5.53-2.74,4-14.27-9.68Z" transform="translate(-1.04 -3.06)"/><path class="cls-1" d="M179.9,29.7l7.33,8.54c3.72,4.34,4.83,8.7-1.46,14.05-5.88,5-10.57,3.26-14.29-1.09l-7.12-8.3Zm-6.67,15.74,1.24,1.46c1.8,2.11,3.64,1.37,6.22-.82s3.61-4,1.82-6l-1.23-1.44Z" transform="translate(-1.04 -3.06)"/><path class="cls-1" d="M185.42,147.09a2.08,2.08,0,0,1,3-.48,2.18,2.18,0,0,1,.68,3.08,2.07,2.07,0,0,1-3,.51,2.16,2.16,0,0,1-.68-3.08Z" transform="translate(-1.04 -3.06)"/><path class="cls-1" d="M180.6,153.6a2.1,2.1,0,0,1,3.06-.2,2.16,2.16,0,0,1,.4,3.11,2.1,2.1,0,0,1-3.1.22,2.14,2.14,0,0,1-.39-3.12Z" transform="translate(-1.04 -3.06)"/><path class="cls-1" d="M175.19,159.61a2.27,2.27,0,0,1,3.2,3.21,2.27,2.27,0,0,1-3.22-3.19Z" transform="translate(-1.04 -3.06)"/><path class="cls-1" d="M169.16,165.19a2.15,2.15,0,0,1,3.08.38,2.12,2.12,0,0,1-.18,3.1,2.14,2.14,0,0,1-3.1-.36,2.08,2.08,0,0,1,.18-3.1Z" transform="translate(-1.04 -3.06)"/><path class="cls-1" d="M57.17,165.15a2.12,2.12,0,0,1,.14,3.08,2.16,2.16,0,0,1-3.11.36,2.1,2.1,0,0,1-.18-3.11,2.13,2.13,0,0,1,3.1-.35Z" transform="translate(-1.04 -3.06)"/><path class="cls-1" d="M51.2,159.67a2.26,2.26,0,1,1-3.14,0,2.1,2.1,0,0,1,3.11-.05Z" transform="translate(-1.04 -3.06)"/><path class="cls-1" d="M45.69,153.56a2.14,2.14,0,0,1-.42,3.07,2.1,2.1,0,0,1-3.08-.23,2.13,2.13,0,0,1,.4-3.1,2.08,2.08,0,0,1,3.08.24Z" transform="translate(-1.04 -3.06)"/><path class="cls-1" d="M40.84,147a2.17,2.17,0,0,1-.69,3,2.09,2.09,0,0,1-3-.52,2.16,2.16,0,0,1,.68-3.07,2.06,2.06,0,0,1,3,.54Z" transform="translate(-1.04 -3.06)"/></svg>