<?xml version="1.0" encoding="UTF-8"?>
<svg width="11px" height="8px" viewBox="0 0 11 8" version="1.1" xmlns="http://www.w3.org/2000/svg" xmlns:xlink="http://www.w3.org/1999/xlink">
    <!-- Generator: sketchtool 53 (72520) - https://sketchapp.com -->
    <title>F9E5BC4E-24F4-45A5-8893-4817682A944B</title>
    <desc>Created with sketchtool.</desc>
    <g id="Page-1" stroke="none" stroke-width="1" fill="none" fill-rule="evenodd">
        <g id="05-SitaAero-Resources-Landing-01" transform="translate(-271.000000, -2834.000000)" fill="#6F6E5F" fill-rule="nonzero">
            <g id="BUTTON/BLUE-FILL-Copy-4" transform="translate(130.000000, 2814.000000)">
                <path d="M149.80994,23.5707799 L144.507583,18.6757303 C144.384946,18.5624223 144.221236,18.5 144.046677,18.5 C143.872118,18.5 143.708408,18.5624223 143.585771,18.6757303 L143.195289,19.0361339 C142.9412,19.2709775 142.9412,19.6526654 143.195289,19.8871513 L147.647808,23.9977195 L143.190349,28.1128487 C143.067712,28.2261567 143,28.3772043 143,28.538268 C143,28.6995106 143.067712,28.8505581 143.190349,28.9639556 L143.580831,29.3242697 C143.703565,29.4375777 143.867178,29.5 144.041737,29.5 C144.216296,29.5 144.380006,29.4375777 144.502643,29.3242697 L149.80994,24.4247486 C149.932868,24.3110828 150.000386,24.1593198 149.999998,23.9979878 C150.000386,23.8360298 149.932868,23.6843562 149.80994,23.5707799 Z" id="Path" transform="translate(146.500000, 24.000000) rotate(-270.000000) translate(-146.500000, -24.000000) "></path>
            </g>
        </g>
    </g>
</svg>