<?xml version="1.0" encoding="UTF-8"?>
<svg width="18px" height="18px" viewBox="0 0 18 18" version="1.1" xmlns="http://www.w3.org/2000/svg" xmlns:xlink="http://www.w3.org/1999/xlink">
    <!-- Generator: sketchtool 53 (72520) - https://sketchapp.com -->
    <title>5F0B40C7-EB26-46D4-99C9-72A5BDAE2E10</title>
    <desc>Created with sketchtool.</desc>
    <g id="Page-1" stroke="none" stroke-width="1" fill="none" fill-rule="evenodd">
        <g id="Search-opened-01" transform="translate(-1244.000000, -31.000000)" fill="#4B4B4A" fill-rule="nonzero">
            <path d="M1254.64907,40.0001334 L1261.65791,32.9909362 C1262.11403,32.535017 1262.11403,31.7978586 1261.65791,31.3419394 C1261.202,30.8860202 1260.46485,30.8860202 1260.00894,31.3419394 L1252.99989,38.3511367 L1245.99106,31.3419394 C1245.53493,30.8860202 1244.798,30.8860202 1244.34209,31.3419394 C1243.88597,31.7978586 1243.88597,32.535017 1244.34209,32.9909362 L1251.35093,40.0001334 L1244.34209,47.0093307 C1243.88597,47.4652499 1243.88597,48.2024083 1244.34209,48.6583275 C1244.5693,48.8857533 1244.86804,49 1245.16657,49 C1245.4651,49 1245.76363,48.8857533 1245.99106,48.6583275 L1252.99989,41.6491302 L1260.00894,48.6583275 C1260.23637,48.8857533 1260.5349,49 1260.83343,49 C1261.13196,49 1261.43049,48.8857533 1261.65791,48.6583275 C1262.11403,48.2024083 1262.11403,47.4652499 1261.65791,47.0093307 L1254.64907,40.0001334 Z" id="Close"></path>
        </g>
    </g>
</svg>