<?xml version="1.0" encoding="UTF-8"?>
<svg width="28px" height="33px" viewBox="0 0 28 33" version="1.1" xmlns="http://www.w3.org/2000/svg" xmlns:xlink="http://www.w3.org/1999/xlink">
    <!-- Generator: sketchtool 53 (72520) - https://sketchapp.com -->
    <title>24C17D30-328A-4422-8194-586B38F34B48</title>
    <desc>Created with sketchtool.</desc>
    <g id="Page-1" stroke="none" stroke-width="1" fill="none" fill-rule="evenodd">
        <g id="00-SitaAero-Homepage-01" transform="translate(-784.000000, -970.000000)" fill="#F5821F">
            <g id="INTRO" transform="translate(130.000000, 950.000000)">
                <path d="M667.998518,49.686573 C670.655019,47.7678173 679.201186,41.0168001 679.201186,33.6348602 C679.201186,27.6201601 674.175773,22.725817 668,22.725817 C661.824227,22.725817 656.798814,27.6201601 656.798814,33.6348602 C656.798814,41.0312377 665.342016,47.7707048 667.998518,49.686573 Z M668,20 C675.720457,20 682,26.1157632 682,33.6348602 C682,43.7931487 669.316391,52.1452947 668.775307,52.4961281 L668,53 L667.224693,52.4961281 C666.683609,52.1452947 654,43.7931487 654,33.6348602 C654,26.1157632 660.279543,20 668,20 Z M665.030707,30.7414228 C664.237611,31.5152776 663.800296,32.5417903 663.800296,33.6347158 C663.800296,33.9148051 663.828463,34.1876755 663.886277,34.4518834 C663.895172,34.5067463 663.921855,34.5587216 663.935197,34.6121407 C663.988564,34.820042 664.044896,35.0279433 664.129394,35.2228508 C664.145701,35.2603885 664.172385,35.293595 664.190174,35.3311327 C664.285049,35.5347027 664.388818,35.7339415 664.516307,35.9187426 C664.557814,35.976493 664.611182,36.0255808 664.654172,36.0804436 C664.812791,36.2869012 664.989199,36.4760336 665.184879,36.6492847 C665.339051,36.7864418 665.496188,36.9235989 665.668149,37.0347683 C665.773401,37.102625 665.890512,37.1517128 666.000212,37.2109069 C666.132147,37.2802074 666.259636,37.3581704 666.397501,37.4130332 C666.501271,37.4549022 666.613935,37.4780024 666.723634,37.5112088 C666.877806,37.5602966 667.030496,37.6166032 667.187632,37.6469222 C667.291402,37.665691 667.401101,37.665691 667.506353,37.6772411 C667.839898,37.7162226 668.173443,37.7162226 668.506989,37.6757973 C668.607793,37.6642473 668.711563,37.665691 668.810885,37.6469222 C668.972469,37.6151595 669.129606,37.5588529 669.288225,37.5083213 C669.391995,37.4765586 669.501694,37.4534585 669.602499,37.414477 C669.740364,37.3581704 669.870817,37.2787636 670.002753,37.2080194 C670.112452,37.1502691 670.229564,37.1011813 670.331851,37.0333246 C670.486023,36.935149 670.625371,36.8109857 670.766201,36.6897099 C671.639348,35.9389552 672.201186,34.8546922 672.201186,33.6347158 C672.201186,32.4522772 671.674926,31.3954456 670.849216,30.6475784 C669.2482,29.2081507 666.579839,29.2341383 665.030707,30.7414228 Z M672.948327,28.816892 C674.215798,30.0498622 675.001482,31.7549416 675.001482,33.6347158 C675.001482,35.5144901 674.215798,37.2181257 672.948327,38.4539835 L672.951292,38.4554272 C672.825286,38.5781467 672.678526,38.6647723 672.545108,38.7759417 C672.331639,38.9564116 672.125582,39.1441003 671.889877,39.2985825 C671.703092,39.421302 671.5,39.50504 671.30432,39.6089907 C671.095299,39.7187164 670.895172,39.8414359 670.672808,39.9309489 C670.491953,40.0045807 670.30072,40.0421184 670.113935,40.0998687 C669.861923,40.1792755 669.617323,40.2702323 669.353452,40.3193201 C669.165184,40.3554141 668.972469,40.3554141 668.782719,40.3756267 C668.521813,40.4045019 668.268319,40.4535897 668,40.4535897 C667.731681,40.4535897 667.478187,40.4045019 667.218763,40.3756267 C667.029013,40.3554141 666.836298,40.3554141 666.646548,40.3193201 C666.384159,40.2702323 666.13956,40.1792755 665.88903,40.1013125 C665.700762,40.0435621 665.50953,40.0045807 665.327192,39.9309489 C665.106311,39.8428796 664.906184,39.7187164 664.69568,39.6089907 C664.501482,39.50504 664.298391,39.421302 664.111605,39.2985825 C663.871453,39.1412128 663.660949,38.9520803 663.444515,38.7687229 C663.315544,38.6589972 663.173232,38.5752592 663.050191,38.4554272 C662.43202,37.8533797 661.957645,37.1502691 661.610758,36.3951831 C661.594452,36.3547578 661.566285,36.3215514 661.549979,36.2811261 C661.404701,35.9447303 661.302414,35.5895656 661.214951,35.2315133 C661.194197,35.1521066 661.158619,35.0784749 661.142313,34.9976244 C661.04892,34.5543903 661,34.0981625 661,33.6347158 C661,31.812692 661.72787,30.1003938 663.050191,28.8140045 C664.372512,27.5261714 666.129183,26.8172857 668,26.8172857 C668.475858,26.8172857 668.945786,26.8649298 669.402372,26.9544428 C669.461669,26.9674367 669.516518,26.9934243 669.575815,27.0064182 C669.968657,27.0944875 670.354087,27.2013256 670.721728,27.3529203 C670.73507,27.3586954 670.743964,27.3673579 670.757306,27.373133 C671.565227,27.7095288 672.310885,28.1903006 672.951292,28.8140045 L672.948327,28.816892 Z" id="Coverage"></path>
            </g>
        </g>
    </g>
</svg>