<?xml version="1.0" encoding="UTF-8"?>
<svg width="1248px" height="941px" viewBox="0 0 1248 941" version="1.1" xmlns="http://www.w3.org/2000/svg" xmlns:xlink="http://www.w3.org/1999/xlink">
    <!-- Generator: Sketch 53 (72520) - https://sketchapp.com -->
    <title>Group 8</title>
    <desc>Created with Sketch.</desc>
    <defs>
        <polygon id="path-1" points="0 0 976.677778 0 976.677778 1095.78357 0 1095.78357"></polygon>
    </defs>
    <g id="Page-1" stroke="none" stroke-width="1" fill="none" fill-rule="evenodd" opacity="0.502836682">
        <g id="Group-8" transform="translate(607.709820, 531.113666) rotate(42.000000) translate(-607.709820, -531.113666) translate(119.209820, -16.886334)">
            <mask id="mask-2" fill="white">
                <use xlink:href="#path-1"></use>
            </mask>
            <g id="Clip-7"></g>
            <path d="M98.8562156,221.555926 C64.5868369,287.686999 39.4029257,367.950403 23.0323367,451.586003 C6.64081349,535.376054 -0.916453291,622.51256 0.0883910454,702.209641 C0.96762984,772.613878 7.16416991,846.621988 29.8359703,911.980802 C74.9702284,1042.23508 180.520752,1091.53091 289.713837,1095.52092 C347.052767,1097.60601 405.375607,1087.12904 456.476128,1069.34135 C510.423708,1050.60121 561.587032,1022.28506 609.170599,986.452268 C663.829944,945.290887 713.737212,894.115888 757.678218,836.067788 C801.598289,778.04543 1020.84276,543.922382 968.716463,202.635591 C919.269748,-121.043705 600.943436,38.350458 536.026305,45.4552366 C447.620937,55.1342103 353.01903,41.7741376 271.752244,60.7974396 C256.888922,64.298345 242.695495,69.601187 229.088228,76.5772558 C176.417638,103.606305 133.10466,155.527821 98.8562156,221.555926 Z" id="Fill-6" fill="#FEFEFE" mask="url(#mask-2)"></path>
        </g>
    </g>
</svg>