<?xml version="1.0" encoding="UTF-8"?>
<svg width="8px" height="17px" viewBox="0 0 8 17" version="1.1" xmlns="http://www.w3.org/2000/svg" xmlns:xlink="http://www.w3.org/1999/xlink">
    <!-- Generator: sketchtool 53 (72520) - https://sketchapp.com -->
    <title>9FF7B4E2-F2DF-4C66-AED0-67F9A16EC166</title>
    <desc>Created with sketchtool.</desc>
    <g id="Page-1" stroke="none" stroke-width="1" fill="none" fill-rule="evenodd">
        <g id="00-SitaAero-Homepage-01" transform="translate(-1154.000000, -7502.000000)" fill="#FFFFFF" fill-rule="nonzero">
            <g id="FOOTER-Copy" transform="translate(0.000000, 7051.000000)">
                <g id="iconfinder_06-facebook_104498" transform="translate(1154.000000, 451.000000)">
                    <path d="M8,5.50467812 L5.27548111,5.50467812 L5.27548111,3.74028152 C5.27548111,3.07766508 5.72024234,2.92318361 6.03349964,2.92318361 C6.34604419,2.92318361 7.95616536,2.92318361 7.95616536,2.92318361 L7.95616536,0.0102049265 L5.308268,0 C2.36885246,0 1.69992872,2.17259367 1.69992872,3.56292693 L1.69992872,5.50467812 L0,5.50467812 L0,8.50633409 L1.69992872,8.50633409 C1.69992872,12.3585179 1.69992872,17 1.69992872,17 L5.27548111,17 C5.27548111,17 5.27548111,12.3127717 5.27548111,8.50633409 L7.68816821,8.50633409 L8,5.50467812 Z" id="Path"></path>
                </g>
            </g>
        </g>
    </g>
</svg>