<?xml version="1.0" encoding="utf-8"?>
<!-- Generator: Adobe Illustrator 21.1.0, SVG Export Plug-In . SVG Version: 6.00 Build 0)  -->
<svg version="1.1" id="Layer_1" xmlns="http://www.w3.org/2000/svg" xmlns:xlink="http://www.w3.org/1999/xlink" x="0px" y="0px"
	 viewBox="0 0 438.8 474.6" style="enable-background:new 0 0 438.8 474.6;" xml:space="preserve">
<style type="text/css">
	.st0{fill:#F58220;}
</style>
<g id="Page-1_2_">
	<g id="_x30_1-SitaAero-AboutUs-01_2_" transform="translate(-131.000000, -1420.000000)">
		<g id="footprint" transform="translate(131.000000, 1420.000000)">
			<path id="Shape_2_" class="st0" d="M106,0C47.6,0,0,49.9,0,111.2v84.4c0,61.3,47.6,111.2,106,111.2c58,0,105.1-49.9,105.1-111.2
				v-84.4C211.1,49.9,164,0,106,0z M106,27.8c23.3,0,44.3,10.8,58.7,27.8H46.6C61.3,38.6,82.4,27.8,106,27.8z M106,279
				c-23.6,0-44.8-10.8-59.4-27.9h118.1C150.3,268.2,129.3,279,106,279z M180.4,223.4H30.8c-2.9-8.7-4.6-18.1-4.6-27.8h158.6
				C184.9,205.3,183.3,214.7,180.4,223.4z M184.9,167.8H26.3V139h158.6V167.8z M26.3,111.2c0-9.8,1.6-19.1,4.6-27.8h149.5
				c2.9,8.7,4.5,18.1,4.5,27.8H26.3z"/>
			<path id="Shape_1_" class="st0" d="M332.8,167.8c-58,0-105.1,49.9-105.1,111.2v83.4c0,61.8,47.2,112.1,105.1,112.1
				c28.1,0,54.6-11.7,74.8-33c20.1-21.3,31.2-49.4,31.2-79.1V279C438.8,217.7,391.3,167.8,332.8,167.8z M332.8,195.6
				c23.6,0,44.8,10.8,59.4,27.8H274.1C288.6,206.3,309.5,195.6,332.8,195.6z M332.8,446.8c-23.2,0-44-10.8-58.5-27.9h117.1
				C376.7,435.8,355.7,446.8,332.8,446.8z M407.6,391.1H258.7c-3.1-9-4.7-18.7-4.7-28.8h158.6C412.6,372.4,410.8,382.1,407.6,391.1z
				 M412.6,334.6H254v-27.8h158.6V334.6z M254,279c0-9.8,1.6-19.1,4.5-27.8H408c2.9,8.7,4.6,18.1,4.6,27.8H254z"/>
		</g>
	</g>
</g>
</svg>
