<?xml version="1.0" encoding="UTF-8"?>
<svg width="831px" height="883px" viewBox="0 0 831 883" version="1.1" xmlns="http://www.w3.org/2000/svg" xmlns:xlink="http://www.w3.org/1999/xlink">
    <!-- Generator: sketchtool 53 (72520) - https://sketchapp.com -->
    <title>857288F5-758D-4C41-A7B3-2BAE3651F373</title>
    <desc>Created with sketchtool.</desc>
    <g id="Page-1" stroke="none" stroke-width="1" fill="none" fill-rule="evenodd" opacity="0.8">
        <g id="02-SitaAero-AboutUs-B-Responsible-Business-01" transform="translate(-609.000000, -180.000000)" fill="#FFFFFF">
            <path d="M726.085417,725.617178 C737.99968,761.442316 755.536923,795.925168 778.90455,827.72345 C851.104525,926.150007 1002.37189,1050.54285 1134.83453,1091.25113 C1252.22574,1127.30769 1354.84511,1097.52284 1374.249,925.154865 C1374.64077,923.002579 1374.98644,920.618865 1375.10167,918.374008 C1387.89164,815.712308 1424.94799,746.144889 1468.38781,691.481468 C1529.13443,615.318336 1602.39447,568.083771 1640.00391,500.761209 C1673.78787,440.450932 1679.11127,364.172085 1621.49877,236.585531 C1600.27433,189.350967 1564.13978,154.4284 1518.39546,130.406118 C1471.36062,105.874692 1414.46252,92.6832656 1353.16283,89.5358375 C1263.40257,84.8841239 1164.44735,101.708979 1074.06487,134.918974 C1011.0368,158.316399 950.635867,190.160966 897.955004,232.072675 C800.912522,309.485521 738.55276,412.610079 716.337383,518.44235 C701.70381,588.449483 704.446164,659.660044 726.085417,725.617178 Z" id="Bubble-Back-01" transform="translate(1186.204895, 596.773590) rotate(-133.000000) translate(-1186.204895, -596.773590) "></path>
        </g>
    </g>
</svg>