<?xml version="1.0" encoding="UTF-8"?>
<svg width="1323px" height="1128px" viewBox="0 0 1323 1128" version="1.1" xmlns="http://www.w3.org/2000/svg" xmlns:xlink="http://www.w3.org/1999/xlink">
    <!-- Generator: sketchtool 53 (72520) - https://sketchapp.com -->
    <title>9C421CFF-580C-4132-9899-98B85DA3BC36</title>
    <desc>Created with sketchtool.</desc>
    <g id="Page-1" stroke="none" stroke-width="1" fill="none" fill-rule="evenodd" opacity="0.8">
        <g id="Assets-01" transform="translate(-212.000000, -4365.000000)" fill="#FFFFFF">
            <path d="M209.12835,5125.32115 C224.363186,5171.1008 246.788157,5215.16518 276.668473,5255.79905 C368.990989,5381.57477 562.417415,5540.53186 731.798143,5592.55149 C881.90695,5638.62687 1013.12692,5600.56589 1037.93878,5380.30311 C1038.43973,5377.55279 1038.88175,5374.50672 1039.02909,5371.6381 C1055.3837,5240.45045 1102.76787,5151.55277 1158.31461,5081.70037 C1235.99165,4984.37427 1329.66968,4924.01494 1377.76107,4837.98588 C1420.96082,4760.91757 1427.76788,4663.4436 1354.09846,4500.40538 C1326.95864,4440.04604 1280.75318,4395.41977 1222.25967,4364.72256 C1162.11595,4333.37475 1089.36003,4316.5179 1010.97577,4312.49592 C896.198818,4306.55166 769.664224,4328.05153 654.09164,4370.48938 C573.497295,4400.3881 496.262277,4441.08111 428.89896,4494.63856 C304.810191,4593.56163 225.070412,4725.34075 196.663484,4860.57997 C177.951452,4950.03954 181.458116,5041.03693 209.12835,5125.32115 Z" id="Bubble-Back-01" transform="translate(797.485720, 4960.676613) rotate(47.000000) translate(-797.485720, -4960.676613) "></path>
        </g>
    </g>
</svg>