<?xml version="1.0" encoding="UTF-8"?>
<svg width="17px" height="17px" viewBox="0 0 17 17" version="1.1" xmlns="http://www.w3.org/2000/svg" xmlns:xlink="http://www.w3.org/1999/xlink">
    <!-- Generator: sketchtool 53 (72520) - https://sketchapp.com -->
    <title>2296E0E6-781A-486F-9724-59C84675B49A</title>
    <desc>Created with sketchtool.</desc>
    <g id="Page-1" stroke="none" stroke-width="1" fill="none" fill-rule="evenodd">
        <g id="00-SitaAero-Homepage-01" transform="translate(-1192.000000, -7502.000000)" fill="#FFFFFF" fill-rule="nonzero">
            <g id="FOOTER-Copy" transform="translate(0.000000, 7051.000000)">
                <g id="iconfinder_linkedin-social-media_765228" transform="translate(1192.000000, 451.000000)">
                    <path d="M3.566088,16.9999997 L3.566088,5.75722355 L0.106725559,5.75722355 L0.106725559,16.9999997 L3.566088,16.9999997 Z M3.566088,1.77215372 C3.54548293,0.766041443 2.87793519,0 1.79348766,0 C0.708757875,0 0,0.766041443 0,1.77215372 C0,2.75641378 0.688152806,3.54461094 1.75199527,3.54461094 L1.77260034,3.54461094 C2.87793519,3.54461094 3.566088,2.75641378 3.566088,1.77215372 Z M9.20984395,17 L9.20984395,10.5944095 C9.20984395,10.2515923 9.2345113,9.90877508 9.33487033,9.66439054 C9.60925249,8.97909554 10.2337085,8.26970153 11.2822404,8.26970153 C12.6558408,8.26970153 13.5172903,9.05275027 13.5172903,10.5944094 L13.5172903,16.9999999 L17,17 L17,10.4230009 C17,6.89979037 15.1276458,5.26037736 12.6301598,5.26037736 C10.5824306,5.26037736 9.68359248,6.41034243 9.18450078,7.19305185 L9.20950601,5.68937748 L5.73282022,5.68937748 C5.78283076,6.76568772 5.73282022,17 5.73282022,17 L9.20984395,17 Z" id="Shape"></path>
                </g>
            </g>
        </g>
    </g>
</svg>