<?xml version="1.0" encoding="UTF-8"?>
<svg width="581px" height="448px" viewBox="0 0 581 448" version="1.1" xmlns="http://www.w3.org/2000/svg" xmlns:xlink="http://www.w3.org/1999/xlink">
    <!-- Generator: sketchtool 53 (72520) - https://sketchapp.com -->
    <title>8B140EE6-C025-4E64-9F0E-B928E2ACA7F3</title>
    <desc>Created with sketchtool.</desc>
    <g id="Page-1" stroke="none" stroke-width="1" fill="none" fill-rule="evenodd" opacity="0.08">
        <g id="01-SitaAero-AboutUs-01" transform="translate(-859.000000, -3735.000000)" fill="#F7F9FE">
            <g id="Bubble-Back-01" transform="translate(733.000000, 3646.000000)">
                <path d="M94.8862711,932.049258 C109.287855,975.34972 130.486317,1017.02781 158.732363,1055.46117 C246.005402,1174.42555 428.852587,1324.77438 588.969226,1373.97691 C730.868001,1417.55709 854.911041,1381.55728 878.365845,1173.22276 C878.839398,1170.62138 879.257239,1167.74027 879.396519,1165.027 C894.856633,1040.94377 939.649179,956.860311 992.157854,890.790743 C1065.58643,798.735304 1154.14085,741.644708 1199.60194,660.274524 C1240.43893,587.379819 1246.87368,495.18452 1177.23352,340.975575 C1151.57809,283.884979 1107.89979,241.67542 1052.60551,212.640614 C995.751286,182.990427 926.974671,167.046459 852.877549,163.242284 C744.378191,157.619937 624.764265,177.95549 515.512793,218.09513 C439.326466,246.374695 366.31573,284.863995 302.636775,335.52106 C185.334901,429.08698 109.9564,553.729654 83.1031573,681.645037 C65.4145585,766.259957 68.7294298,852.329416 94.8862711,932.049258 Z" transform="translate(651.064096, 776.320985) rotate(-54.000000) translate(-651.064096, -776.320985) "></path>
            </g>
        </g>
    </g>
</svg>