<svg xmlns="http://www.w3.org/2000/svg" viewBox="0 0 344.94 364.03"><defs><style>.cls-1{fill:#f58220;}</style></defs><title>aircraft</title><g id="Layer_2" data-name="Layer 2"><g id="Layer_1-2" data-name="Layer 1"><path class="cls-1" d="M108.64,364q-.45,0-.9,0a12.16,12.16,0,0,1-9.29-5.38l-35.6-53.05-56.38-30a12.24,12.24,0,0,1-3.32-19l21.77-24.1a12.16,12.16,0,0,1,6.42-3.74L84.76,216.8l.87-1c9.44-10.89,33-38.08,48.2-55.38l3.16-3.61L6.74,79a12.24,12.24,0,0,1-2.8-18.71L33.68,27.36A12.21,12.21,0,0,1,46.77,24L206.92,79.52l1.77-1.92c33.13-35.81,55.06-56.49,71.1-67C286.67,6,297.11,0,308.33,0c8,0,15.5,3.1,22.27,9.22,18.44,16.66,11,36.91,3.81,50.69-8.89,17-27.25,40.94-59.53,77.54l-1.73,2,70.66,153a12.23,12.23,0,0,1-2,13.34L312,338.66a12.26,12.26,0,0,1-9.07,4h-.6a12.19,12.19,0,0,1-9.24-4.93L203.33,216.8l-3.27,3.52c-15.48,16.62-40.26,43-50.2,53.53l-.9,1-6.42,54.34a12.22,12.22,0,0,1-3.07,6.77L117.7,360A12.1,12.1,0,0,1,108.64,364Zm56.46-201.7-.86.92-.16.18c-2.07,2.25-5.24,5.79-9.43,10.52-11.4,12.87-29.58,33.71-54,61.93A12.3,12.3,0,0,1,94,239.81L40.47,251.72l-8.65,9.57,45.25,24.12a12.19,12.19,0,0,1,4.4,4L110,332l8.65-9.57,6.44-54.48a12.35,12.35,0,0,1,3.25-7c25.86-27.45,44.87-47.76,56.52-60.38,4.21-4.56,7.31-8,9.23-10.1.48-.54.93-1,1.32-1.52l.51-.46a12.22,12.22,0,0,1,17.1,0c2.33,3.14,29.17,39.39,82,110.77l6,8,2.9,3.88,14.3-15.83L247.58,142.39a12.24,12.24,0,0,1,2-13.28c35.21-39.47,54.69-64.31,63.16-80.53,3.56-6.82,8-15.31,1.47-21.2a9.68,9.68,0,0,0-6.65-2.63c-4.81,0-9.84,3.32-14.29,6.25-15.28,10.06-38,32-73.73,71a12.21,12.21,0,0,1-13,3.3L46.41,49.78,32.09,65.64l4.21,2.49c1,.62,122.06,72.62,127.85,76.14a12.29,12.29,0,0,1,1.71,17Q165.46,161.82,165.1,162.33Z"/></g></g></svg>