<?xml version="1.0" encoding="UTF-8"?>
<svg width="24px" height="24px" viewBox="0 0 24 24" version="1.1" xmlns="http://www.w3.org/2000/svg" xmlns:xlink="http://www.w3.org/1999/xlink">
    <!-- Generator: sketchtool 53 (72520) - https://sketchapp.com -->
    <title>1A32A7CD-4CD3-427A-8062-205845930E28</title>
    <desc>Created with sketchtool.</desc>
    <g id="Page-1" stroke="none" stroke-width="1" fill="none" fill-rule="evenodd">
        <g id="06-SitaAero-Portfolio-Solution-Page-01" transform="translate(-442.000000, -376.000000)" fill="#0095DA" fill-rule="nonzero">
            <g id="BUTTON/BLUE-FILL-Copy-8" transform="translate(318.000000, 365.000000)">
                <g id="001-play-button" transform="translate(124.000000, 11.000000)">
                    <path d="M11.996636,0 C5.3710795,0 0,5.3710795 0,11.996636 C0,18.6221925 5.3710795,23.993272 11.996636,23.993272 C18.6221925,23.993272 23.993272,18.6221925 23.993272,11.996636 C23.9862427,5.37404184 18.6192803,0.00707949791 11.996636,0 Z M11.996636,22.2794812 C6.31757322,22.2794812 1.71379079,17.6756987 1.71379079,11.996636 C1.71379079,6.31757322 6.31757322,1.71379079 11.996636,1.71379079 C17.6756987,1.71379079 22.2794812,6.31757322 22.2794812,11.996636 C22.2733556,17.6731883 17.6731883,22.2733556 11.996636,22.2794812 Z" id="Shape"></path>
                    <path d="M17.048887,11.6143933 C16.965841,11.4477992 16.8308285,11.3127364 16.6641841,11.2296904 L9.80897071,7.80205858 C9.38560669,7.5905272 8.87096234,7.76219247 8.65938075,8.18555649 C8.59988285,8.30460251 8.56895397,8.43589958 8.56900418,8.56900418 L8.56900418,15.4242678 C8.56880335,15.8975397 8.95225105,16.2813389 9.42552301,16.28159 C9.55862762,16.2816402 9.68992469,16.2507113 9.80897071,16.1912134 L16.6641841,12.7635816 C17.087749,12.5525021 17.2600167,12.0379582 17.048887,11.6143933 Z M10.2828452,14.0377908 L10.2828452,9.95548117 L14.3651548,11.996636 L10.2828452,14.0377908 Z" id="Shape"></path>
                </g>
            </g>
        </g>
    </g>
</svg>