<?xml version="1.0" encoding="UTF-8"?>
<svg width="20px" height="20px" viewBox="0 0 20 20" version="1.1" xmlns="http://www.w3.org/2000/svg" xmlns:xlink="http://www.w3.org/1999/xlink">
    <!-- Generator: sketchtool 53 (72520) - https://sketchapp.com -->
    <title>B8218C4D-ED9A-4F8C-9DF9-FBF1CFB9934A</title>
    <desc>Created with sketchtool.</desc>
    <g id="Page-1" stroke="none" stroke-width="1" fill="none" fill-rule="evenodd">
        <g id="00-SITA-AERO-MEGA-MENU-01" transform="translate(-1289.000000, -30.000000)" fill="#4B4B4A">
            <g id="Menu">
                <path d="M1307.19685,38.5019599 C1307.20114,34.9237442 1304.31016,32.0282618 1300.72612,32.0211789 C1297.15902,32.0141594 1294.24428,34.9246295 1294.24238,38.4954463 C1294.24043,42.0450778 1297.14575,44.9747095 1300.67166,44.9784406 C1304.29184,44.9823615 1307.19249,42.1033213 1307.19685,38.5019599 M1295.39429,45.1410926 C1294.75689,45.7660882 1294.12606,46.3854556 1293.49435,47.0038744 C1292.58002,47.8990924 1291.66973,48.7984841 1290.74844,49.6864928 C1290.2014,50.21391 1289.36168,50.0520169 1289.07938,49.3797181 C1288.91232,48.9820683 1289.01108,48.5524193 1289.35556,48.2141514 C1290.58429,47.0076688 1291.81726,45.8056129 1293.04271,44.5958418 C1293.35092,44.2915967 1293.63683,43.9647752 1293.93651,43.6444672 C1290.82079,39.4940608 1292.26252,34.2496747 1295.4751,31.7934536 C1298.87787,29.1919715 1303.34554,29.4457515 1306.4073,32.3913828 C1309.45902,35.3272753 1309.86611,40.0684649 1307.36586,43.5002812 C1305.97114,45.4147297 1304.08346,46.5653087 1301.73688,46.9152759 C1299.37133,47.2680889 1297.28589,46.5606922 1295.39429,45.1410926" id="search" transform="translate(1299.000000, 40.000000) scale(-1, 1) translate(-1299.000000, -40.000000) "></path>
            </g>
        </g>
    </g>
</svg>