<?xml version="1.0" encoding="UTF-8"?>
<svg width="56px" height="57px" viewBox="0 0 56 57" version="1.1" xmlns="http://www.w3.org/2000/svg" xmlns:xlink="http://www.w3.org/1999/xlink">
    <!-- Generator: sketchtool 53 (72520) - https://sketchapp.com -->
    <title>6E20C8DF-81AC-416F-977F-A683F9CBF032</title>
    <desc>Created with sketchtool.</desc>
    <defs>
        <polygon id="path-1" points="0 0.00876923077 55.9899487 0.00876923077 55.9899487 56.9997077 0 56.9997077"></polygon>
    </defs>
    <g id="Page-1" stroke="none" stroke-width="1" fill="none" fill-rule="evenodd">
        <g id="09-SitaAero-SuccessForm" transform="translate(-130.000000, -405.000000)">
            <g id="Group-8" transform="translate(130.000000, 405.000000)">
                <g id="Group-3">
                    <mask id="mask-2" fill="white">
                        <use xlink:href="#path-1"></use>
                    </mask>
                    <g id="Clip-2"></g>
                    <path d="M27.9955487,3.68863077 C14.551241,3.68863077 3.61401026,14.8211692 3.61401026,28.5055538 C3.61401026,42.1884769 14.551241,53.3195538 27.9955487,53.3195538 C41.4384205,53.3195538 52.3756513,42.1884769 52.3756513,28.5055538 C52.3756513,14.8211692 41.4384205,3.68863077 27.9955487,3.68863077 M27.9955487,56.9997077 C12.5596513,56.9997077 -0.000143589744,44.2170923 -0.000143589744,28.5055538 C-0.000143589744,12.7925538 12.5596513,0.00847692308 27.9955487,0.00847692308 C43.4314462,0.00847692308 55.991241,12.7925538 55.991241,28.5055538 C55.991241,44.2170923 43.4314462,56.9997077 27.9955487,56.9997077" id="Fill-1" fill="#86BE23" mask="url(#mask-2)"></path>
                </g>
                <path d="M23.3101742,36.9623809 L40.1316092,19.5432749 C40.8479434,18.8014892 42.0757286,18.8221367 42.8687736,19.5879714 C43.6618186,20.353806 43.7253026,21.5801226 43.0089684,22.3219084 C42.2573155,23.1002678 41.6935759,23.6840373 41.3177494,24.073217 C39.183539,26.2832565 33.6666956,31.9961152 24.767219,41.2117929 C24.4014103,41.5905989 23.9019557,41.7708552 23.3951365,41.7545738 C22.9156592,41.7853023 22.4360616,41.637975 22.0641217,41.3030789 L13.5903429,33.1986546 C12.8240093,32.5086448 12.8006909,31.2798927 13.5383822,30.4606036 C14.2760734,29.6413144 15.5005317,29.5360655 16.2668653,30.2260753 L23.3101742,36.9623809 Z" id="Combined-Shape" fill="#86BE23"></path>
            </g>
        </g>
    </g>
</svg>