<?xml version="1.0" encoding="utf-8"?>
<!-- Generator: Adobe Illustrator 21.1.0, SVG Export Plug-In . SVG Version: 6.00 Build 0)  -->
<svg version="1.1" id="Layer_1" xmlns="http://www.w3.org/2000/svg" xmlns:xlink="http://www.w3.org/1999/xlink" x="0px" y="0px"
	 viewBox="0 0 18 18" style="enable-background:new 0 0 18 18;" xml:space="preserve">
<style type="text/css">
	.st0{fill:#FFFFFF;}
</style>
<title>7055F1F9-CCCF-4AEA-9AE1-09A8A9C306DB</title>
<desc>Created with sketchtool.</desc>
<g id="Page-1">
	<g id="_x30_0-SitaAero-Homepage-02" transform="translate(-159.000000, -3731.000000)">
		<path id="Combined-Shape" class="st0" d="M167.9,3746.9c3.8,0,6.9-3.1,6.9-6.9c0-3.8-3.1-6.9-6.9-6.9s-6.9,3.1-6.9,6.9
			C161,3743.8,164.1,3746.9,167.9,3746.9z M168,3731c5,0,9,4,9,9c0,5-4,9-9,9c-5,0-9-4-9-9C159,3735,163,3731,168,3731z
			 M167.1,3740.8l3.9-3.9l1.5,1.5l-5.4,5.4l-3.1-3.1l1.5-1.5L167.1,3740.8z"/>
	</g>
</g>
</svg>
