<?xml version="1.0" encoding="UTF-8"?>
<svg width="18px" height="18px" viewBox="0 0 18 18" version="1.1" xmlns="http://www.w3.org/2000/svg" xmlns:xlink="http://www.w3.org/1999/xlink">
    <!-- Generator: sketchtool 53 (72520) - https://sketchapp.com -->
    <title>7055F1F9-CCCF-4AEA-9AE1-09A8A9C306DB</title>
    <desc>Created with sketchtool.</desc>
    <g id="Page-1" stroke="none" stroke-width="1" fill="none" fill-rule="evenodd">
        <g id="00-SitaAero-Homepage-02" transform="translate(-159.000000, -3731.000000)" fill="#6F6E5F">
            <path d="M167.939191,3746.91392 C171.751567,3746.91392 174.853148,3743.81234 174.853148,3739.99997 C174.853148,3736.18759 171.751567,3733.08608 167.939191,3733.08608 C164.126814,3733.08608 161.025164,3736.18759 161.025164,3739.99997 C161.025164,3743.81234 164.126814,3746.91392 167.939191,3746.91392 Z M167.999965,3731 C172.970532,3731 177,3735.02947 177,3739.99997 C177,3744.9706 172.970532,3749 167.999965,3749 C163.029468,3749 159,3744.9706 159,3739.99997 C159,3735.02947 163.029468,3731 167.999965,3731 Z M167.073594,3740.84189 L170.96997,3736.94552 L172.445035,3738.42058 L167.073594,3743.79209 L164.02194,3740.74037 L165.497006,3739.2653 L167.073594,3740.84189 Z" id="Combined-Shape"></path>
        </g>
    </g>
</svg>