<?xml version="1.0" encoding="UTF-8"?>
<svg width="17px" height="16px" viewBox="0 0 17 16" version="1.1" xmlns="http://www.w3.org/2000/svg" xmlns:xlink="http://www.w3.org/1999/xlink">
    <!-- Generator: sketchtool 53 (72520) - https://sketchapp.com -->
    <title>EB48D014-0F12-4F6B-8B4D-B94200A57A3E</title>
    <desc>Created with sketchtool.</desc>
    <g id="Page-1" stroke="none" stroke-width="1" fill="none" fill-rule="evenodd">
        <g id="00-SitaAero-Homepage-01" transform="translate(-1238.000000, -7503.000000)" fill="#FFFFFF" fill-rule="nonzero">
            <g id="FOOTER-Copy" transform="translate(0.000000, 7051.000000)">
                <g id="iconfinder_twitter-social-media_765208" transform="translate(1238.000000, 452.000000)">
                    <path d="M14.31553,1.31897891 C13.67939,0.524827534 12.77295,0.0188459273 11.76978,0.000511260562 C9.84367999,-0.0346915478 8.28197496,1.75244463 8.28197496,3.9920226 C8.28197496,4.30987269 8.31282998,4.61982284 8.37232997,4.91736672 C5.47365998,4.71091482 2.903685,3.0535119 1.18354,0.555172596 C0.88332,1.15383121 0.711279998,1.85353223 0.711279998,2.60306466 C0.711279998,4.02199332 1.32702,5.28128241 2.26287,6.02481895 C1.69116,5.99710439 1.153365,5.80706629 0.683144998,5.49530562 C0.682805,5.51234599 0.682805,5.52939041 0.682805,5.54673386 C0.682805,7.52827317 1.885045,9.19063107 3.48058,9.57787547 C3.187925,9.66893307 2.87979999,9.7165872 2.56173,9.7142713 C2.33699,9.71263491 2.118455,9.68526905 1.90553,9.63613263 C2.34931499,11.261196 3.63731999,12.4470205 5.16357999,12.4862295 C3.96992499,13.5742245 2.466105,14.2222006 0.83198,14.2184992 C0.550459998,14.2178615 0.272850001,14.1978869 0,14.1594576 C1.543515,15.3223592 3.376795,15.9994322 5.34641497,15.9999996 C11.76162,16.0018477 15.269825,9.87171742 15.269825,4.55457746 C15.269825,4.38012766 15.26634,4.20661105 15.25971,4.03393224 C15.941155,3.47638506 16.532415,2.77734484 17,1.97910432 C16.37457,2.288676 15.702305,2.49427965 14.99689,2.58052412 C15.716925,2.09393544 16.27002,1.31516662 16.530375,0.381282634 C15.85641,0.830062213 15.110025,1.15189632 14.31553,1.31897891 Z" id="Path"></path>
                </g>
            </g>
        </g>
    </g>
</svg>