<?xml version="1.0" encoding="UTF-8"?>
<svg width="19px" height="15px" viewBox="0 0 19 15" version="1.1" xmlns="http://www.w3.org/2000/svg" xmlns:xlink="http://www.w3.org/1999/xlink">
    <!-- Generator: sketchtool 53 (72520) - https://sketchapp.com -->
    <title>FABF3364-DB0D-405C-89BF-C90B4AFDDF23</title>
    <desc>Created with sketchtool.</desc>
    <g id="Page-1" stroke="none" stroke-width="1" fill="none" fill-rule="evenodd">
        <g id="05-SitaAero-Resources-Detail-01" transform="translate(-270.000000, -577.000000)" fill="#0095DA" fill-rule="nonzero">
            <path d="M285.99971,578.236543 C285.28873,577.492026 284.27565,577.017668 283.15446,577.000479 C281.00176,576.967477 279.256325,578.642917 279.256325,580.742521 C279.256325,581.040506 279.29081,581.331084 279.35731,581.610031 C276.11762,581.416483 273.245295,579.862667 271.32278,577.520474 C270.98724,578.081717 270.79496,578.737686 270.79496,579.440373 C270.79496,580.770619 271.48314,581.951202 272.52909,582.648268 C271.89012,582.622285 271.289055,582.444125 270.763515,582.151849 C270.763135,582.167824 270.763135,582.183804 270.763135,582.200063 C270.763135,584.057756 272.106815,585.616217 273.89006,585.979258 C273.562975,586.064625 273.2186,586.109301 272.86311,586.107129 C272.61193,586.105595 272.367685,586.07994 272.12971,586.033874 C272.625705,587.557371 274.06524,588.669082 275.77106,588.70584 C274.436975,589.725836 272.756235,590.333313 270.92986,590.329843 C270.61522,590.329245 270.30495,590.310519 270,590.274491 C271.725105,591.364712 273.774065,591.999468 275.975405,592 C283.14534,592.001732 287.066275,586.254735 287.066275,581.269916 C287.066275,581.10637 287.06238,580.943698 287.05497,580.781811 C287.816585,580.259111 288.477405,579.603761 289,578.85541 C288.30099,579.145634 287.549635,579.338387 286.76123,579.419241 C287.565975,578.963064 288.18414,578.232969 288.475125,577.357452 C287.72187,577.778183 286.887675,578.079903 285.99971,578.236543 Z" id="Path"></path>
        </g>
    </g>
</svg>