<?xml version="1.0" encoding="UTF-8"?>
<svg width="23px" height="16px" viewBox="0 0 23 16" version="1.1" xmlns="http://www.w3.org/2000/svg" xmlns:xlink="http://www.w3.org/1999/xlink">
    <!-- Generator: sketchtool 53 (72520) - https://sketchapp.com -->
    <title>C547897E-E97E-48C4-AE36-1B757DD5A2DD</title>
    <desc>Created with sketchtool.</desc>
    <g id="Page-1" stroke="none" stroke-width="1" fill="none" fill-rule="evenodd">
        <g id="00-SitaAero-Homepage-01" transform="translate(-1277.000000, -7503.000000)" fill="#FFFFFF" fill-rule="nonzero">
            <g id="FOOTER-Copy" transform="translate(0.000000, 7051.000000)">
                <path d="M1299.52612,454.503618 C1299.26108,453.524626 1298.48421,452.752898 1297.49901,452.489286 C1295.69919,452 1288.49974,452 1288.49974,452 C1288.49974,452 1281.30058,452 1279.50075,452.470736 C1278.53451,452.734069 1277.73869,453.524766 1277.47365,454.503618 C1277,456.291717 1277,460 1277,460 C1277,460 1277,463.726973 1277.47365,465.496382 C1277.73897,466.475234 1278.51555,467.246962 1279.50089,467.510574 C1281.31953,468 1288.50002,468 1288.50002,468 C1288.50002,468 1295.69919,468 1297.49901,467.529264 C1298.48435,467.265791 1299.26108,466.494064 1299.5264,465.515212 C1299.9999,463.726973 1299.9999,460.018829 1299.9999,460.018829 C1299.9999,460.018829 1300.01885,456.291717 1299.52612,454.503618 L1299.52612,454.503618 Z M1286,464 L1286,457 L1292,460.5 L1286,464 Z" id="YOUTUBE"></path>
            </g>
        </g>
    </g>
</svg>